<mxfile host="app.diagrams.net" agent="Mozilla/5.0 (Windows NT 10.0; Win64; x64) AppleWebKit/537.36 (KHTML, like Gecko) Chrome/134.0.0.0 Safari/537.36" version="26.1.3">
  <diagram name="Страница — 1" id="hi3maOYxdtd5-xxtNOdB">
    <mxGraphModel dx="1114" dy="566" grid="1" gridSize="10" guides="1" tooltips="1" connect="1" arrows="1" fold="1" page="1" pageScale="1" pageWidth="827" pageHeight="1169" math="0" shadow="0">
      <root>
        <mxCell id="0" />
        <mxCell id="1" parent="0" />
        <mxCell id="FxxYlGLEtM2QjZ5-GXDw-35" style="edgeStyle=orthogonalEdgeStyle;rounded=0;orthogonalLoop=1;jettySize=auto;html=1;fontSize=14;" edge="1" parent="1" source="FxxYlGLEtM2QjZ5-GXDw-36" target="FxxYlGLEtM2QjZ5-GXDw-38">
          <mxGeometry relative="1" as="geometry">
            <mxPoint x="360" y="110" as="targetPoint" />
          </mxGeometry>
        </mxCell>
        <mxCell id="FxxYlGLEtM2QjZ5-GXDw-36" value="Начало&lt;br&gt;&lt;div&gt;&lt;div&gt;AddNumber&lt;/div&gt;&lt;/div&gt;" style="rounded=1;whiteSpace=wrap;html=1;fontSize=14;" vertex="1" parent="1">
          <mxGeometry x="300" y="10" width="120" height="60" as="geometry" />
        </mxCell>
        <mxCell id="FxxYlGLEtM2QjZ5-GXDw-37" style="edgeStyle=orthogonalEdgeStyle;rounded=0;orthogonalLoop=1;jettySize=auto;html=1;entryX=0.5;entryY=0;entryDx=0;entryDy=0;fontSize=14;" edge="1" parent="1" source="FxxYlGLEtM2QjZ5-GXDw-38">
          <mxGeometry relative="1" as="geometry">
            <mxPoint x="360" y="180" as="targetPoint" />
          </mxGeometry>
        </mxCell>
        <mxCell id="FxxYlGLEtM2QjZ5-GXDw-38" value="Ввести lst,value" style="shape=parallelogram;perimeter=parallelogramPerimeter;whiteSpace=wrap;html=1;fixedSize=1;fontSize=14;" vertex="1" parent="1">
          <mxGeometry x="295" y="100" width="130" height="60" as="geometry" />
        </mxCell>
        <mxCell id="FxxYlGLEtM2QjZ5-GXDw-39" value="" style="shape=process;whiteSpace=wrap;html=1;backgroundOutline=1;fontSize=14;" vertex="1" parent="1">
          <mxGeometry x="290" y="180" width="140" height="90" as="geometry" />
        </mxCell>
        <mxCell id="FxxYlGLEtM2QjZ5-GXDw-40" style="edgeStyle=orthogonalEdgeStyle;rounded=0;orthogonalLoop=1;jettySize=auto;html=1;fontSize=14;" edge="1" parent="1" source="FxxYlGLEtM2QjZ5-GXDw-43">
          <mxGeometry relative="1" as="geometry">
            <mxPoint x="360" y="350" as="targetPoint" />
          </mxGeometry>
        </mxCell>
        <mxCell id="FxxYlGLEtM2QjZ5-GXDw-41" value="True" style="edgeLabel;html=1;align=center;verticalAlign=middle;resizable=0;points=[];fontSize=14;" vertex="1" connectable="0" parent="FxxYlGLEtM2QjZ5-GXDw-40">
          <mxGeometry x="0.0062" y="2" relative="1" as="geometry">
            <mxPoint y="-2" as="offset" />
          </mxGeometry>
        </mxCell>
        <mxCell id="FxxYlGLEtM2QjZ5-GXDw-54" style="edgeStyle=orthogonalEdgeStyle;rounded=0;orthogonalLoop=1;jettySize=auto;html=1;entryX=1;entryY=0.5;entryDx=0;entryDy=0;fontSize=14;" edge="1" parent="1" source="FxxYlGLEtM2QjZ5-GXDw-43" target="FxxYlGLEtM2QjZ5-GXDw-46">
          <mxGeometry relative="1" as="geometry">
            <mxPoint x="550" y="760" as="targetPoint" />
            <Array as="points">
              <mxPoint x="551" y="225" />
              <mxPoint x="551" y="760" />
            </Array>
          </mxGeometry>
        </mxCell>
        <mxCell id="FxxYlGLEtM2QjZ5-GXDw-55" value="False" style="edgeLabel;html=1;align=center;verticalAlign=middle;resizable=0;points=[];fontSize=14;" vertex="1" connectable="0" parent="FxxYlGLEtM2QjZ5-GXDw-54">
          <mxGeometry x="-0.7029" relative="1" as="geometry">
            <mxPoint as="offset" />
          </mxGeometry>
        </mxCell>
        <mxCell id="FxxYlGLEtM2QjZ5-GXDw-43" value="&lt;font&gt;IsFull(list)&lt;/font&gt;" style="rhombus;whiteSpace=wrap;html=1;fontSize=14;" vertex="1" parent="1">
          <mxGeometry x="300" y="180" width="120" height="90" as="geometry" />
        </mxCell>
        <mxCell id="FxxYlGLEtM2QjZ5-GXDw-58" style="edgeStyle=orthogonalEdgeStyle;rounded=0;orthogonalLoop=1;jettySize=auto;html=1;" edge="1" parent="1" source="FxxYlGLEtM2QjZ5-GXDw-46">
          <mxGeometry relative="1" as="geometry">
            <mxPoint x="375" y="840" as="targetPoint" />
          </mxGeometry>
        </mxCell>
        <mxCell id="FxxYlGLEtM2QjZ5-GXDw-46" value="&lt;div&gt;&lt;span&gt;newIdx = myList.free&lt;/span&gt;&lt;/div&gt;&lt;div&gt;&lt;span&gt;&amp;nbsp; &amp;nbsp; myList.free = myList.nodes[myList.free].next&lt;/span&gt;&lt;/div&gt;" style="rounded=0;whiteSpace=wrap;html=1;fontSize=14;" vertex="1" parent="1">
          <mxGeometry x="260" y="720" width="230" height="80" as="geometry" />
        </mxCell>
        <mxCell id="FxxYlGLEtM2QjZ5-GXDw-47" value="&lt;font&gt;Конец&lt;/font&gt;&lt;div&gt;&lt;font&gt;AddNumner&lt;/font&gt;&lt;/div&gt;" style="rounded=1;whiteSpace=wrap;html=1;fontSize=14;" vertex="1" parent="1">
          <mxGeometry x="305" y="1630" width="125" height="65" as="geometry" />
        </mxCell>
        <mxCell id="FxxYlGLEtM2QjZ5-GXDw-49" style="edgeStyle=orthogonalEdgeStyle;rounded=0;orthogonalLoop=1;jettySize=auto;html=1;fontSize=14;" edge="1" parent="1" source="FxxYlGLEtM2QjZ5-GXDw-48" target="FxxYlGLEtM2QjZ5-GXDw-50">
          <mxGeometry relative="1" as="geometry">
            <mxPoint x="360" y="479.9999999999999" as="targetPoint" />
          </mxGeometry>
        </mxCell>
        <mxCell id="FxxYlGLEtM2QjZ5-GXDw-48" value="&lt;div&gt;newIdx = myList.first&lt;/div&gt;&lt;div&gt;&amp;nbsp; &amp;nbsp; myList.first = myList.nodes[myList.first].next&lt;/div&gt;&lt;div&gt;&amp;nbsp; &amp;nbsp; myList.count = myList.count - 1&lt;/div&gt;" style="rounded=0;whiteSpace=wrap;html=1;fontSize=14;" vertex="1" parent="1">
          <mxGeometry x="240" y="350" width="240" height="80" as="geometry" />
        </mxCell>
        <mxCell id="FxxYlGLEtM2QjZ5-GXDw-51" style="edgeStyle=orthogonalEdgeStyle;rounded=0;orthogonalLoop=1;jettySize=auto;html=1;fontSize=14;" edge="1" parent="1" source="FxxYlGLEtM2QjZ5-GXDw-50">
          <mxGeometry relative="1" as="geometry">
            <mxPoint x="360" y="620" as="targetPoint" />
          </mxGeometry>
        </mxCell>
        <mxCell id="FxxYlGLEtM2QjZ5-GXDw-52" value="True" style="edgeLabel;html=1;align=center;verticalAlign=middle;resizable=0;points=[];fontSize=14;" vertex="1" connectable="0" parent="FxxYlGLEtM2QjZ5-GXDw-51">
          <mxGeometry x="-0.1584" relative="1" as="geometry">
            <mxPoint as="offset" />
          </mxGeometry>
        </mxCell>
        <mxCell id="FxxYlGLEtM2QjZ5-GXDw-56" style="edgeStyle=orthogonalEdgeStyle;rounded=0;orthogonalLoop=1;jettySize=auto;html=1;fontSize=14;" edge="1" parent="1" source="FxxYlGLEtM2QjZ5-GXDw-50">
          <mxGeometry relative="1" as="geometry">
            <mxPoint x="520" y="760" as="targetPoint" />
          </mxGeometry>
        </mxCell>
        <mxCell id="FxxYlGLEtM2QjZ5-GXDw-50" value="&amp;nbsp;myList.count = 0" style="rhombus;whiteSpace=wrap;html=1;fontSize=14;" vertex="1" parent="1">
          <mxGeometry x="280" y="470" width="160" height="80" as="geometry" />
        </mxCell>
        <mxCell id="FxxYlGLEtM2QjZ5-GXDw-53" value="myList.last = 0" style="rounded=0;whiteSpace=wrap;html=1;fontSize=14;" vertex="1" parent="1">
          <mxGeometry x="300" y="620" width="120" height="50" as="geometry" />
        </mxCell>
        <mxCell id="FxxYlGLEtM2QjZ5-GXDw-57" style="edgeStyle=orthogonalEdgeStyle;rounded=0;orthogonalLoop=1;jettySize=auto;html=1;entryX=0.435;entryY=0;entryDx=0;entryDy=0;entryPerimeter=0;fontSize=14;" edge="1" parent="1" source="FxxYlGLEtM2QjZ5-GXDw-53" target="FxxYlGLEtM2QjZ5-GXDw-46">
          <mxGeometry relative="1" as="geometry" />
        </mxCell>
        <mxCell id="FxxYlGLEtM2QjZ5-GXDw-61" style="edgeStyle=orthogonalEdgeStyle;rounded=0;orthogonalLoop=1;jettySize=auto;html=1;" edge="1" parent="1" source="FxxYlGLEtM2QjZ5-GXDw-60" target="FxxYlGLEtM2QjZ5-GXDw-62">
          <mxGeometry relative="1" as="geometry">
            <mxPoint x="375" y="940" as="targetPoint" />
          </mxGeometry>
        </mxCell>
        <mxCell id="FxxYlGLEtM2QjZ5-GXDw-60" value="&lt;div&gt;myList.nodes[newIdx].data = num&lt;/div&gt;&lt;div&gt;&amp;nbsp; myList.nodes[newIdx].next = 0&lt;/div&gt;" style="rounded=0;whiteSpace=wrap;html=1;" vertex="1" parent="1">
          <mxGeometry x="260" y="840" width="230" height="60" as="geometry" />
        </mxCell>
        <mxCell id="FxxYlGLEtM2QjZ5-GXDw-64" style="edgeStyle=orthogonalEdgeStyle;rounded=0;orthogonalLoop=1;jettySize=auto;html=1;" edge="1" parent="1" source="FxxYlGLEtM2QjZ5-GXDw-62">
          <mxGeometry relative="1" as="geometry">
            <mxPoint x="375" y="1080" as="targetPoint" />
          </mxGeometry>
        </mxCell>
        <mxCell id="FxxYlGLEtM2QjZ5-GXDw-65" value="False" style="edgeLabel;html=1;align=center;verticalAlign=middle;resizable=0;points=[];" vertex="1" connectable="0" parent="FxxYlGLEtM2QjZ5-GXDw-64">
          <mxGeometry x="0.0679" y="2" relative="1" as="geometry">
            <mxPoint as="offset" />
          </mxGeometry>
        </mxCell>
        <mxCell id="FxxYlGLEtM2QjZ5-GXDw-66" style="edgeStyle=orthogonalEdgeStyle;rounded=0;orthogonalLoop=1;jettySize=auto;html=1;" edge="1" parent="1" source="FxxYlGLEtM2QjZ5-GXDw-62">
          <mxGeometry relative="1" as="geometry">
            <mxPoint x="570" y="1050" as="targetPoint" />
          </mxGeometry>
        </mxCell>
        <mxCell id="FxxYlGLEtM2QjZ5-GXDw-67" value="True" style="edgeLabel;html=1;align=center;verticalAlign=middle;resizable=0;points=[];" vertex="1" connectable="0" parent="FxxYlGLEtM2QjZ5-GXDw-66">
          <mxGeometry x="-0.5614" y="-1" relative="1" as="geometry">
            <mxPoint y="-1" as="offset" />
          </mxGeometry>
        </mxCell>
        <mxCell id="FxxYlGLEtM2QjZ5-GXDw-62" value="myList.last &amp;lt;&amp;gt; 0" style="rhombus;whiteSpace=wrap;html=1;" vertex="1" parent="1">
          <mxGeometry x="310" y="930" width="130" height="80" as="geometry" />
        </mxCell>
        <mxCell id="FxxYlGLEtM2QjZ5-GXDw-70" style="edgeStyle=orthogonalEdgeStyle;rounded=0;orthogonalLoop=1;jettySize=auto;html=1;" edge="1" parent="1" source="FxxYlGLEtM2QjZ5-GXDw-68" target="FxxYlGLEtM2QjZ5-GXDw-71">
          <mxGeometry relative="1" as="geometry">
            <mxPoint x="377.5" y="1200" as="targetPoint" />
          </mxGeometry>
        </mxCell>
        <mxCell id="FxxYlGLEtM2QjZ5-GXDw-68" value="myList.last = newIdx" style="rounded=0;whiteSpace=wrap;html=1;" vertex="1" parent="1">
          <mxGeometry x="317.5" y="1080" width="120" height="60" as="geometry" />
        </mxCell>
        <mxCell id="FxxYlGLEtM2QjZ5-GXDw-78" style="edgeStyle=orthogonalEdgeStyle;rounded=0;orthogonalLoop=1;jettySize=auto;html=1;" edge="1" parent="1" source="FxxYlGLEtM2QjZ5-GXDw-69">
          <mxGeometry relative="1" as="geometry">
            <mxPoint x="380" y="1150" as="targetPoint" />
            <Array as="points">
              <mxPoint x="580" y="1130" />
              <mxPoint x="576" y="1130" />
              <mxPoint x="576" y="1150" />
            </Array>
          </mxGeometry>
        </mxCell>
        <mxCell id="FxxYlGLEtM2QjZ5-GXDw-69" value="myList.nodes[myList.last].next = newIdx" style="rounded=0;whiteSpace=wrap;html=1;" vertex="1" parent="1">
          <mxGeometry x="490" y="1050" width="170" height="60" as="geometry" />
        </mxCell>
        <mxCell id="FxxYlGLEtM2QjZ5-GXDw-80" style="edgeStyle=orthogonalEdgeStyle;rounded=0;orthogonalLoop=1;jettySize=auto;html=1;" edge="1" parent="1" source="FxxYlGLEtM2QjZ5-GXDw-71" target="FxxYlGLEtM2QjZ5-GXDw-79">
          <mxGeometry relative="1" as="geometry" />
        </mxCell>
        <mxCell id="FxxYlGLEtM2QjZ5-GXDw-81" value="True" style="edgeLabel;html=1;align=center;verticalAlign=middle;resizable=0;points=[];" vertex="1" connectable="0" parent="FxxYlGLEtM2QjZ5-GXDw-80">
          <mxGeometry x="-0.4793" y="-1" relative="1" as="geometry">
            <mxPoint as="offset" />
          </mxGeometry>
        </mxCell>
        <mxCell id="FxxYlGLEtM2QjZ5-GXDw-82" style="edgeStyle=orthogonalEdgeStyle;rounded=0;orthogonalLoop=1;jettySize=auto;html=1;" edge="1" parent="1" source="FxxYlGLEtM2QjZ5-GXDw-71">
          <mxGeometry relative="1" as="geometry">
            <mxPoint x="380" y="1400" as="targetPoint" />
            <Array as="points">
              <mxPoint x="501" y="1220" />
            </Array>
          </mxGeometry>
        </mxCell>
        <mxCell id="FxxYlGLEtM2QjZ5-GXDw-83" value="False" style="edgeLabel;html=1;align=center;verticalAlign=middle;resizable=0;points=[];" vertex="1" connectable="0" parent="FxxYlGLEtM2QjZ5-GXDw-82">
          <mxGeometry x="-0.4447" y="3" relative="1" as="geometry">
            <mxPoint as="offset" />
          </mxGeometry>
        </mxCell>
        <mxCell id="FxxYlGLEtM2QjZ5-GXDw-71" value="&amp;nbsp;myList.first = 0" style="rhombus;whiteSpace=wrap;html=1;" vertex="1" parent="1">
          <mxGeometry x="311.25" y="1180" width="132.5" height="80" as="geometry" />
        </mxCell>
        <mxCell id="FxxYlGLEtM2QjZ5-GXDw-79" value="myList.first = newIdx" style="rounded=0;whiteSpace=wrap;html=1;" vertex="1" parent="1">
          <mxGeometry x="317.5" y="1310" width="120" height="60" as="geometry" />
        </mxCell>
        <mxCell id="FxxYlGLEtM2QjZ5-GXDw-86" style="edgeStyle=orthogonalEdgeStyle;rounded=0;orthogonalLoop=1;jettySize=auto;html=1;" edge="1" parent="1" source="FxxYlGLEtM2QjZ5-GXDw-84" target="FxxYlGLEtM2QjZ5-GXDw-87">
          <mxGeometry relative="1" as="geometry">
            <mxPoint x="372.5" y="1550" as="targetPoint" />
          </mxGeometry>
        </mxCell>
        <mxCell id="FxxYlGLEtM2QjZ5-GXDw-84" value="myList.count = myList.count + 1" style="rounded=0;whiteSpace=wrap;html=1;" vertex="1" parent="1">
          <mxGeometry x="312.5" y="1430" width="120" height="60" as="geometry" />
        </mxCell>
        <mxCell id="FxxYlGLEtM2QjZ5-GXDw-85" style="edgeStyle=orthogonalEdgeStyle;rounded=0;orthogonalLoop=1;jettySize=auto;html=1;entryX=0.571;entryY=-0.033;entryDx=0;entryDy=0;entryPerimeter=0;" edge="1" parent="1" source="FxxYlGLEtM2QjZ5-GXDw-79" target="FxxYlGLEtM2QjZ5-GXDw-84">
          <mxGeometry relative="1" as="geometry" />
        </mxCell>
        <mxCell id="FxxYlGLEtM2QjZ5-GXDw-88" style="edgeStyle=orthogonalEdgeStyle;rounded=0;orthogonalLoop=1;jettySize=auto;html=1;entryX=0.5;entryY=0;entryDx=0;entryDy=0;" edge="1" parent="1" source="FxxYlGLEtM2QjZ5-GXDw-87" target="FxxYlGLEtM2QjZ5-GXDw-47">
          <mxGeometry relative="1" as="geometry" />
        </mxCell>
        <mxCell id="FxxYlGLEtM2QjZ5-GXDw-87" value="num" style="shape=parallelogram;perimeter=parallelogramPerimeter;whiteSpace=wrap;html=1;fixedSize=1;" vertex="1" parent="1">
          <mxGeometry x="312.5" y="1530" width="120" height="60" as="geometry" />
        </mxCell>
      </root>
    </mxGraphModel>
  </diagram>
</mxfile>
